<svg width="40" height="40" xmlns="http://www.w3.org/2000/svg">
 <g>
  <title>Layer 1</title>
  <g id="svg_1">
   <path id="svg_2" fill="#039be5" d="m400,281a19,19 0 1 0 0,38a19,19 0 1 0 0,-38z"/>
   <path id="svg_3" fill="#fff" d="m402.572,305.036l4.917,0l0.772,-4.995l-5.69,0l0,-2.73c0,-2.075 0.678,-3.915 2.619,-3.915l3.119,0l0,-4.359c-0.548,-0.074 -1.707,-0.236 -3.897,-0.236c-4.573,0 -7.254,2.415 -7.254,7.917l0,3.323l-4.701,0l0,4.995l4.701,0l0,13.729c0.931,0.14 1.874,0.235 2.842,0.235c0.875,0 1.729,-0.08 2.572,-0.194l0,-13.77z"/>
  </g>
  <g>
   <g>
    <title>Layer 1</title>
    <g>
     <path fill="#039be5" d="m19,289a19,19 0 1 0 0,38a19,19 0 1 0 0,-38z"/>
     <path fill="#fff" d="m21.572,313.036l4.917,0l0.772,-4.995l-5.69,0l0,-2.73c0,-2.075 0.678,-3.915 2.619,-3.915l3.119,0l0,-4.359c-0.548,-0.074 -1.707,-0.236 -3.897,-0.236c-4.573,0 -7.254,2.415 -7.254,7.917l0,3.323l-4.701,0l0,4.995l4.701,0l0,13.729c0.931,0.14 1.874,0.235 2.842,0.235c0.875,0 1.729,-0.08 2.572,-0.194l0,-13.77z"/>
    </g>
   </g>
  </g>
  <g>
   <g>
    <title>Layer 1</title>
    <g>
     <path fill="#039be5" d="m20,1a19,19 0 1 0 0,38a19,19 0 1 0 0,-38z"/>
     <path fill="#fff" d="m22.572,25.036l4.917,0l0.772,-4.995l-5.69,0l0,-2.73c0,-2.075 0.678,-3.915 2.619,-3.915l3.119,0l0,-4.359c-0.548,-0.074 -1.707,-0.236 -3.897,-0.236c-4.573,0 -7.254,2.415 -7.254,7.917l0,3.323l-4.701,0l0,4.995l4.701,0l0,13.729c0.931,0.14 1.874,0.235 2.842,0.235c0.875,0 1.729,-0.08 2.572,-0.194l0,-13.77z"/>
    </g>
   </g>
  </g>
 </g>

</svg>